<svg width="80" height="80" viewBox="0 0 80 80" fill="none" xmlns="http://www.w3.org/2000/svg">
<rect width="80" height="80" rx="40" fill="#DEEAFF"/>
<path d="M40 28C35.5817 28 32 31.5817 32 36V44C32 48.4183 35.5817 52 40 52C44.4183 52 48 48.4183 48 44V36C48 31.5817 44.4183 28 40 28Z" fill="#7896FF"/>
<circle cx="36" cy="38" r="3" fill="#2B3491"/>
<circle cx="44" cy="38" r="3" fill="#2B3491"/>
<path d="M40 43C42.2091 43 44 44.7909 44 47H36C36 44.7909 37.7909 43 40 43Z" fill="#FFFFFF"/>
<path d="M30 24C28.3431 24 27 25.3431 27 27C27 28.6569 28.3431 30 30 30V24Z" fill="#5970FB"/>
<path d="M50 24C51.6569 24 53 25.3431 53 27C53 28.6569 51.6569 30 50 30V24Z" fill="#5970FB"/>
</svg>
